<svg width="40" height="40" viewBox="0 0 40 40" fill="none" xmlns="http://www.w3.org/2000/svg">
<path d="M4.16699 20C4.16699 12.9504 4.16699 9.42566 6.16361 7.08792C6.44713 6.75596 6.75629 6.44679 7.08826 6.16327C9.42599 4.16666 12.9508 4.16666 20.0003 4.16666C27.0498 4.16666 30.5747 4.16666 32.9123 6.16327C33.2443 6.44679 33.5535 6.75596 33.837 7.08792C35.8337 9.42566 35.8337 12.9504 35.8337 20C35.8337 27.0495 35.8337 30.5743 33.837 32.912C33.5535 33.244 33.2443 33.5532 32.9123 33.8367C30.5747 35.8333 27.0498 35.8333 20.0003 35.8333C12.9508 35.8333 9.42599 35.8333 7.08826 33.8367C6.75629 33.5532 6.44713 33.244 6.16361 32.912C4.16699 30.5743 4.16699 27.0495 4.16699 20Z" stroke="#F7D117" stroke-width="1.5"/>
<path d="M25 24.1538C24.2027 25.6595 22.752 26.6667 21.0947 26.6667C18.5783 26.6667 16.5385 24.3452 16.5385 21.4815V18.5185C16.5385 15.6548 18.5783 13.3333 21.0947 13.3333C22.752 13.3333 24.2027 14.3404 25 15.8462M15 20H21.5385" stroke="#F7D117" stroke-width="1.5" stroke-linecap="round"/>
</svg>
