<svg width="30" height="30" viewBox="0 0 30 30" fill="none" xmlns="http://www.w3.org/2000/svg">
<path d="M11.7634 26.2096C8.23677 23.5725 1.25 17.5435 1.25 12.118C1.25 8.53204 3.88157 5.625 7.5 5.625C9.375 5.625 11.25 6.25 13.75 8.75C16.25 6.25 18.125 5.625 20 5.625C23.6184 5.625 26.25 8.53204 26.25 12.118C26.25 17.5435 19.2633 23.5725 15.7366 26.2096C14.5499 27.097 12.9501 27.097 11.7634 26.2096Z" stroke="#F7D117" stroke-width="1.5" stroke-linecap="round" stroke-linejoin="round"/>
<path d="M13.0134 24.9596C9.48677 22.3225 2.5 16.2935 2.5 10.868C2.5 7.28204 5.13157 4.375 8.75 4.375C10.625 4.375 12.5 5 15 7.5C17.5 5 19.375 4.375 21.25 4.375C24.8684 4.375 27.5 7.28204 27.5 10.868C27.5 16.2935 20.5133 22.3225 16.9866 24.9596C15.7999 25.847 14.2001 25.847 13.0134 24.9596Z" stroke="#AA0000" stroke-linecap="round" stroke-linejoin="round"/>
</svg>
