<svg width="40" height="40" viewBox="0 0 40 40" fill="none" xmlns="http://www.w3.org/2000/svg">
<path d="M25.8337 18.3333C25.8337 21.555 23.222 24.1667 20.0003 24.1667C16.7787 24.1667 14.167 21.555 14.167 18.3333C14.167 15.1117 16.7787 12.5 20.0003 12.5C23.222 12.5 25.8337 15.1117 25.8337 18.3333Z" stroke="#F7D117" stroke-width="1.5"/>
<path d="M20 3.33334C28.1177 3.33334 35 10.055 35 18.2097C35 26.4942 28.0055 32.3078 21.545 36.2612C21.0742 36.527 20.5417 36.6667 20 36.6667C19.4583 36.6667 18.9258 36.527 18.455 36.2612C12.0065 32.2693 5 26.5228 5 18.2097C5 10.055 11.8824 3.33334 20 3.33334Z" stroke="#F7D117" stroke-width="1.5"/>
</svg>
