<svg width="40" height="40" viewBox="0 0 40 40" fill="none" xmlns="http://www.w3.org/2000/svg">
<path d="M6.66699 23.3333H36.667" stroke="#F7D117" stroke-width="1.5" stroke-linecap="round" stroke-linejoin="round"/>
<path d="M8.33301 36.6667L9.88394 35.1157C10.7652 34.2345 11.2059 33.7938 11.7611 33.5433C12.3163 33.2927 12.9382 33.2538 14.1821 33.1762L19.6028 32.8373C22.267 32.6708 23.5992 32.5875 24.7713 32.0247C25.9437 31.4617 26.8415 30.474 28.637 28.4988L33.333 23.3333H27.4997L24.5115 26.3215C24.3128 26.5202 24.2133 26.6197 24.11 26.7073C23.5783 27.159 22.9183 27.4323 22.2232 27.489C22.0878 27.5 21.9473 27.5 21.6663 27.5M21.6663 27.5C21.6663 26.7255 21.6663 26.3383 21.6023 26.0163C21.3393 24.694 20.3057 23.6603 18.9833 23.3973C18.6613 23.3333 18.2742 23.3333 17.4997 23.3333H16.1972C14.4554 23.3333 13.5846 23.3333 12.7679 23.5433C12.1597 23.6997 11.5765 23.9412 11.0359 24.2607C10.31 24.6897 9.69416 25.3055 8.46257 26.5372L3.33301 31.6667M21.6663 27.5H15.833" stroke="#F7D117" stroke-width="1.5" stroke-linecap="round" stroke-linejoin="round"/>
<path d="M8.33301 19.1667C8.33301 11.8029 14.3025 5.83334 21.6663 5.83334M21.6663 5.83334C29.0302 5.83334 34.9997 11.8029 34.9997 19.1667M21.6663 5.83334V3.33334" stroke="#F7D117" stroke-width="1.5" stroke-linecap="round" stroke-linejoin="round"/>
</svg>
